<svg xmlns="http://www.w3.org/2000/svg" width="192pt" height="218pt" viewBox="0.00 0.00 192.29 217.82" xmlns:xlink="http://www.w3.org/1999/xlink">
<style>
a.external_repository_anchor {
  fill: #0366d6;
  text-decoration: underline;
}
</style><g id="graph0" class="graph" transform="scale(1 1) rotate(0) translate(4 213.82)">
<title>ySwiftExtensionsDependenciesGraph</title>
<polygon fill="white" stroke="transparent" points="-4,4 -4,-213.82 188.29,-213.82 188.29,4 -4,4" />

<g id="node1" class="node">
<title>Ranges</title>
<ellipse fill="none" stroke="black" cx="92.14" cy="-25.46" rx="40.41" ry="25.41" />
<text text-anchor="middle" x="92.14" y="-28.26" font-family="monospace" font-size="12px"><a href="https://github.com/YOCKOW/SwiftRanges.git" xlink:href="https://github.com/YOCKOW/SwiftRanges.git" class="external_repository_anchor">Ranges</a></text>
<text text-anchor="middle" x="92.14" y="-14.26" font-family="monospace" font-size="12px">@3.1.1</text>
</g>

<g id="node2" class="node">
<title>UnicodeSupplement</title>
<ellipse fill="none" stroke="black" cx="92.14" cy="-112.37" rx="92.29" ry="25.41" />
<text text-anchor="middle" x="92.14" y="-115.17" font-family="monospace" font-size="12px"><a href="https://github.com/YOCKOW/SwiftUnicodeSupplement.git" xlink:href="https://github.com/YOCKOW/SwiftUnicodeSupplement.git" class="external_repository_anchor">UnicodeSupplement</a></text>
<text text-anchor="middle" x="92.14" y="-101.17" font-family="monospace" font-size="12px">@1.0.0</text>
</g>

<g id="edge1" class="edge">
<title>UnicodeSupplement-&gt;Ranges</title>
<path fill="none" stroke="black" d="M92.14,-86.81C92.14,-78.8 92.14,-69.75 92.14,-61.14" />
<polygon fill="black" stroke="black" points="95.64,-60.96 92.14,-50.96 88.64,-60.96 95.64,-60.96" />
</g>

<g id="node3" class="node">
<title>ySwiftExtensions</title>
<polygon fill="none" stroke="black" points="149.42,-209.82 34.86,-209.82 34.86,-173.82 149.42,-173.82 149.42,-209.82" />
<text text-anchor="middle" x="92.14" y="-187.62" font-family="monospace" font-size="12px">ySwiftExtensions</text>
</g>

<g id="edge2" class="edge">
<title>ySwiftExtensions-&gt;UnicodeSupplement</title>
<path fill="none" stroke="black" d="M92.14,-173.63C92.14,-166.07 92.14,-156.91 92.14,-148.03" />
<polygon fill="black" stroke="black" points="95.64,-147.86 92.14,-137.86 88.64,-147.86 95.64,-147.86" />
</g>
</g>
</svg>