<svg xmlns="http://www.w3.org/2000/svg" width="204pt" height="223pt" viewBox="0.00 0.00 203.99 223.48" xmlns:xlink="http://www.w3.org/1999/xlink">
<style>
a.external_repository_anchor {
  fill: #0366d6;
  text-decoration: underline;
}
</style><g id="graph0" class="graph" transform="scale(1 1) rotate(0) translate(4 219.48)">
<title>yExtensionsDependenciesGraph</title>
<polygon fill="white" stroke="none" points="-4,4 -4,-219.48 199.99,-219.48 199.99,4 -4,4" />

<g id="node1" class="node">
<title>Ranges</title>
<ellipse fill="none" stroke="black" cx="45.48" cy="-26.87" rx="40.11" ry="26.74" />
<text text-anchor="middle" x="45.48" y="-30.67" font-family="monospace" font-size="12px"><a href="https://github.com/YOCKOW/SwiftRanges.git" xlink:href="https://github.com/YOCKOW/SwiftRanges.git" class="external_repository_anchor">Ranges</a></text>
<text text-anchor="middle" x="45.48" y="-15.67" font-family="monospace" font-size="12px">@3.1.2</text>
</g>

<g id="node2" class="node">
<title>UnicodeSupplement</title>
<ellipse fill="none" stroke="black" cx="105.48" cy="-116.61" rx="90.52" ry="26.74" />
<text text-anchor="middle" x="105.48" y="-120.41" font-family="monospace" font-size="12px"><a href="https://github.com/YOCKOW/SwiftUnicodeSupplement.git" xlink:href="https://github.com/YOCKOW/SwiftUnicodeSupplement.git" class="external_repository_anchor">UnicodeSupplement</a></text>
<text text-anchor="middle" x="105.48" y="-105.41" font-family="monospace" font-size="12px">@1.3.0</text>
</g>

<g id="edge1" class="edge">
<title>UnicodeSupplement-&gt;Ranges</title>
<path fill="none" stroke="black" d="M88.13,-90.23C81.83,-81.03 74.63,-70.49 67.96,-60.73" />
<polygon fill="black" stroke="black" points="70.3,-58.96 61.77,-52.69 64.53,-62.92 70.3,-58.96" />
</g>

<g id="node3" class="node">
<title>yExtensions</title>
<polygon fill="none" stroke="black" points="86.98,-215.48 3.98,-215.48 3.98,-179.48 86.98,-179.48 86.98,-215.48" />
<text text-anchor="middle" x="45.48" y="-193.78" font-family="monospace" font-size="12px">yExtensions</text>
</g>

<g id="edge2" class="edge">
<title>yExtensions-&gt;Ranges</title>
<path fill="none" stroke="black" d="M27.75,-179.08C19.24,-169.48 9.95,-156.82 5.48,-143.48 -2.1,-120.83 -1.28,-112.65 5.48,-89.74 8.61,-79.16 14.16,-68.69 20.16,-59.45" />
<polygon fill="black" stroke="black" points="23.43,-61.88 26.24,-51.66 17.67,-57.9 23.43,-61.88" />
</g>

<g id="edge3" class="edge">
<title>yExtensions-&gt;UnicodeSupplement</title>
<path fill="none" stroke="black" d="M58.5,-179.37C64.68,-171.25 72.28,-161.25 79.56,-151.68" />
<polygon fill="black" stroke="black" points="82.84,-154.16 86.11,-144.08 77.27,-149.92 82.84,-154.16" />
</g>
</g>
</svg>